<?xml version="1.0" encoding="UTF-8"?>
<svg width="512" height="512" viewBox="0 0 512 512" fill="none" xmlns="http://www.w3.org/2000/svg">
  <rect width="512" height="512" rx="128" fill="#6B46C1"/>
  <path d="M256 128C185.3 128 128 185.3 128 256C128 326.7 185.3 384 256 384C326.7 384 384 326.7 384 256C384 185.3 326.7 128 256 128ZM256 352C202.1 352 160 309.9 160 256C160 202.1 202.1 160 256 160C309.9 160 352 202.1 352 256C352 309.9 309.9 352 256 352Z" fill="white"/>
  <path d="M256 176C240.5 176 228 188.5 228 204C228 219.5 240.5 232 256 232C271.5 232 284 244.5 284 260C284 275.5 271.5 288 256 288" stroke="white" stroke-width="24" stroke-linecap="round" stroke-linejoin="round"/>
  <path d="M256 96C264.8 96 272 88.8366 272 80C272 71.1634 264.8 64 256 64C247.2 64 240 71.1634 240 80C240 88.8366 247.2 96 256 96Z" fill="white"/>
  <path d="M256 448C264.8 448 272 440.837 272 432C272 423.163 264.8 416 256 416C247.2 416 240 423.163 240 432C240 440.837 247.2 448 256 448Z" fill="white"/>
  <path d="M160 256C160 247.2 152.837 240 144 240C135.163 240 128 247.2 128 256C128 264.8 135.163 272 144 272C152.837 272 160 264.8 160 256Z" fill="white"/>
  <path d="M384 256C384 247.2 376.837 240 368 240C359.163 240 352 247.2 352 256C352 264.8 359.163 272 368 272C376.837 272 384 264.8 384 256Z" fill="white"/>
  <path d="M208 144C208 135.2 200.837 128 192 128C183.163 128 176 135.2 176 144C176 152.8 183.163 160 192 160C200.837 160 208 152.8 208 144Z" fill="white"/>
  <path d="M336 160C344.8 160 352 152.8 352 144C352 135.2 344.8 128 336 128C327.2 128 320 135.2 320 144C320 152.8 327.2 160 336 160Z" fill="white"/>
  <path d="M208 368C208 359.2 200.837 352 192 352C183.163 352 176 359.2 176 368C176 376.8 183.163 384 192 384C200.837 384 208 376.8 208 368Z" fill="white"/>
  <path d="M336 384C344.8 384 352 376.8 352 368C352 359.2 344.8 352 336 352C327.2 352 320 359.2 320 368C320 376.8 327.2 384 336 384Z" fill="white"/>
</svg>
